<svg width="107" height="107" viewBox="0 0 107 107" fill="none" xmlns="http://www.w3.org/2000/svg">
<path d="M101.113 58.1407C103.91 31.6233 84.6766 7.85984 58.1535 5.06339C31.6303 2.26694 7.86158 21.4965 5.06452 48.0139C2.26746 74.5312 21.5013 98.2948 48.0244 101.091C74.5476 103.888 98.3163 84.6581 101.113 58.1407Z" fill="url(#paint0_linear_56_822)" stroke="#5B3B7A" stroke-width="3.72" stroke-miterlimit="10"/>
<path d="M21.2998 64.4536C28.6495 78.5548 45.044 86.1616 60.9986 81.789C76.9661 77.4163 87.1884 62.5261 86.3215 46.6396" stroke="#5B3B7A" stroke-width="2.66" stroke-miterlimit="10" stroke-linecap="round"/>
<path d="M45.2124 45.333C46.7392 50.9217 45.3676 56.1741 42.1327 57.0538C38.8978 57.9464 35.0288 54.1301 33.5019 48.5414C31.9751 42.9527 33.3467 37.7003 36.5816 36.8206C39.8165 35.9279 43.6855 39.7443 45.2124 45.333Z" fill="#5B3B7A"/>
<path d="M67.7144 39.1622C69.2412 44.7509 67.8696 50.0033 64.6347 50.883C61.3998 51.7627 57.5309 47.9592 56.004 42.3705C54.4771 36.7818 55.8487 31.5295 59.0837 30.6498C62.3186 29.7701 66.1875 33.5735 67.7144 39.1622Z" fill="#5B3B7A"/>
<defs>
<linearGradient id="paint0_linear_56_822" x1="6.50826" y1="65.8833" x2="99.6424" y2="40.3642" gradientUnits="userSpaceOnUse">
<stop stop-color="#FF8939"/>
<stop offset="0.09" stop-color="#FF953B"/>
<stop offset="0.33" stop-color="#FFB440"/>
<stop offset="0.57" stop-color="#FFCA44"/>
<stop offset="0.8" stop-color="#FFD747"/>
<stop offset="1" stop-color="#FFDC48"/>
</linearGradient>
</defs>
</svg>
