<svg width="374" height="91" viewBox="0 0 374 91" fill="none" xmlns="http://www.w3.org/2000/svg">
<path d="M2.83762 88.1185L0.0944214 90.3696H373.727L370.983 88.1185H2.83762Z" fill="url(#paint0_linear_29_303)"/>
<path d="M2.83768 2.77443L0.0944824 0.523438H373.727L370.983 2.77443H2.83768Z" fill="#F2F2F2"/>
<path d="M2.83768 88.1186V2.77443L0.0944824 0.523438V90.3697L2.83768 88.1186Z" fill="#F2F2F2"/>
<path d="M370.983 88.1185V2.77431L373.727 0.523315V90.3695L370.983 88.1185Z" fill="url(#paint1_linear_29_303)"/>
<path d="M370.983 88.1185H1.72485V1.7782H372.096L370.983 88.1185Z" fill="url(#paint2_linear_29_303)"/>
<path d="M370.983 2.26953H1.72485V16.9399H370.983V2.26953Z" fill="url(#paint3_linear_29_303)"/>
<path d="M366.998 4.62427H357.021V14.5986H366.998V4.62427Z" fill="white" stroke="#5B3B7A" stroke-width="0.74" stroke-miterlimit="10"/>
<path d="M358.949 6.24133L365.083 12.3734" stroke="#5B3B7A" stroke-width="0.74" stroke-miterlimit="10"/>
<path d="M365.083 6.24133L358.949 12.3734" stroke="#5B3B7A" stroke-width="0.74" stroke-miterlimit="10"/>
<path d="M342.218 4.62427H332.242V14.5986H342.218V4.62427Z" fill="white" stroke="#5B3B7A" stroke-width="0.74" stroke-miterlimit="10"/>
<path d="M335.878 12.7098H340.614" stroke="#5B3B7A" stroke-width="0.74" stroke-miterlimit="10"/>
<path d="M354.615 4.62427H344.638V14.5986H354.615V4.62427Z" fill="white" stroke="#5B3B7A" stroke-width="0.74" stroke-miterlimit="10"/>
<path d="M352.505 6.66833H349.141V10.0319H352.505V6.66833Z" fill="white" stroke="#5B3B7A" stroke-width="0.59" stroke-miterlimit="10"/>
<path d="M350.112 9.1781H346.747V12.5416H350.112V9.1781Z" fill="white" stroke="#5B3B7A" stroke-width="0.59" stroke-miterlimit="10"/>
<defs>
<linearGradient id="paint0_linear_29_303" x1="0.0944214" y1="89.2441" x2="373.727" y2="89.2441" gradientUnits="userSpaceOnUse">
<stop stop-color="#B6FFFF"/>
<stop offset="0.98" stop-color="#FAFEFF"/>
</linearGradient>
<linearGradient id="paint1_linear_29_303" x1="372.355" y1="90.3695" x2="372.355" y2="0.523315" gradientUnits="userSpaceOnUse">
<stop stop-color="#B6FFFF"/>
<stop offset="0.98" stop-color="#FAFEFF"/>
</linearGradient>
<linearGradient id="paint2_linear_29_303" x1="1.72485" y1="44.9484" x2="372.096" y2="44.9484" gradientUnits="userSpaceOnUse">
<stop stop-color="#FB76FF"/>
<stop offset="1" stop-color="#964EEA"/>
</linearGradient>
<linearGradient id="paint3_linear_29_303" x1="1.72485" y1="9.60472" x2="370.983" y2="9.60472" gradientUnits="userSpaceOnUse">
<stop stop-color="#ED44F2"/>
<stop offset="0.04" stop-color="#EE4DE7"/>
<stop offset="0.21" stop-color="#F378B6"/>
<stop offset="0.38" stop-color="#F79C8F"/>
<stop offset="0.55" stop-color="#FAB870"/>
<stop offset="0.71" stop-color="#FDCC59"/>
<stop offset="0.86" stop-color="#FED74C"/>
<stop offset="1" stop-color="#FFDC48"/>
</linearGradient>
</defs>
</svg>
